<svg xmlns="http://www.w3.org/2000/svg" width="25" height="25" viewBox="0 0 25 25">
    <g fill="none" fill-rule="evenodd">
        <path fill="#637381" fill-rule="nonzero" d="M12.498 18.993a6.5 6.5 0 1 1 0-13 6.5 6.5 0 0 1 0 13z"/>
        <path fill="#FAC219" fill-rule="nonzero" d="M12.498 17.993a5.5 5.5 0 1 0 0-11 5.5 5.5 0 0 0 0 11z"/>
        <path fill="#637381" fill-rule="nonzero" d="M12.998 3.991a.5.5 0 1 1-1 0V.494a.5.5 0 1 1 1 0v3.497zm5.865 2.844a.5.5 0 1 1-.707-.707l2.472-2.473a.5.5 0 1 1 .707.707l-2.472 2.473zm2.136 6.158a.5.5 0 1 1 0-1h3.497a.5.5 0 1 1 0 1h-3.497zm-2.843 5.865a.5.5 0 1 1 .707-.707l2.472 2.472a.5.5 0 1 1-.707.707l-2.472-2.472zm-6.158 2.136a.5.5 0 1 1 1 0v3.497a.5.5 0 1 1-1 0v-3.497zm-5.865-2.843a.5.5 0 1 1 .707.707L4.367 21.33a.5.5 0 1 1-.707-.707l2.473-2.472zm-2.137-6.158a.5.5 0 1 1 0 1H.499a.5.5 0 1 1 0-1h3.497zM6.84 6.128a.5.5 0 1 1-.707.707L3.66 4.362a.5.5 0 1 1 .707-.707L6.84 6.128z"/>
    </g>
</svg>
