<svg id="Layer_35" enable-background="new 0 0 64 64" height="512" viewBox="0 0 64 64" width="512" xmlns="http://www.w3.org/2000/svg"><path d="m16 62h-10c0-6.05 3.66-11.5 9.26-13.79l9.81-4.01c1.12 1.42 1.94 3.05 2.42 4.78.34 1.19.51 2.43.51 3.68v9.34z" fill="#fcd770"/><path d="m48 62h-12v-9.34c0-1.25.17-2.49.51-3.68.48-1.73 1.3-3.36 2.42-4.78l9.81 4.01c2.8 1.15 5.12 3.08 6.73 5.49 1.61 2.4 2.53 5.28 2.53 8.3z" fill="#fcd770"/><path d="m32 50c1.8 0 3.41-.39 4.51-1.02-.34 1.19-.51 2.43-.51 3.68v9.34h-8v-9.34c0-1.25-.17-2.49-.51-3.68 1.1.63 2.71 1.02 4.51 1.02z" fill="#e6e9ed"/><path d="m36 39.07c4.35-2.82 7.27-7.46 7.88-12.68.08-.67.12-1.35.12-2.04v-1.47c0-1.72-1.1-3.25-2.74-3.79l-9.26-3.09-9.26 3.09c-1.64.54-2.74 2.07-2.74 3.79v1.47c0 .71.04 1.41.13 2.1.35 2.99 1.47 5.79 3.18 8.16l4.69 4.46v1.24c0 .47-.08.92-.24 1.35-6.36-.96-11.76-3.66-11.76-3.66v-24.9c0-2.97 2.09-5.52 5-6.1l.44-.44c2.92-2.92 6.88-4.56 11-4.56 4.3 0 8.19 1.74 11 4.56 2.82 2.81 4.56 6.7 4.56 11v20.44s-5.4 2.7-11.76 3.66c-.16-.43-.24-.88-.24-1.35z" fill="#b27946"/><path d="m38.49 44.02.44.18c-1.12 1.42-1.94 3.05-2.42 4.78-1.1.63-2.71 1.02-4.51 1.02s-3.41-.39-4.51-1.02c-.48-1.73-1.3-3.36-2.42-4.78l.44-.18c1.08-.44 1.88-1.31 2.25-2.36.16-.43.24-.88.24-1.35v-1.24c1.23.8 2.57 1.45 4 1.93 1.43-.48 2.77-1.13 4-1.93v1.24c0 .47.08.92.24 1.35.37 1.05 1.17 1.92 2.25 2.36z" fill="#f0d0b4"/><path d="m41.26 19.09-9.26-3.09-9.26 3.09c-1.64.54-2.74 2.07-2.74 3.79v1.47c0 .71.04 1.41.13 2.1.35 2.99 1.47 5.79 3.18 8.16l4.69 4.46c1.23.8 2.57 1.45 4 1.93 1.43-.48 2.77-1.13 4-1.93 4.35-2.82 7.27-7.46 7.88-12.68.08-.67.12-1.35.12-2.04v-1.47c0-1.72-1.1-3.25-2.74-3.79z" fill="#f0d0b4"/><path d="m30 24v2c0 1.1-.9 2-2 2h-4c-1.03 0-1.89-.79-1.99-1.8-.01-.06-.01-.13-.01-.2v-2c0-1.1.9-2 2-2h4c1.1 0 2 .9 2 2z" fill="#69d6f4"/><path d="m42 24v2c0 .07 0 .14-.01.2-.1 1.01-.96 1.8-1.99 1.8h-4c-1.1 0-2-.9-2-2v-2c0-1.1.9-2 2-2h4c1.1 0 2 .9 2 2z" fill="#69d6f4"/><path d="m32 36c2.206 0 4-1.794 4-4h-2c0 1.103-.897 2-2 2s-2-.897-2-2h-2c0 2.206 1.794 4 4 4z"/><path d="m49.123 47.289-10.259-4.198c-.394-.161-.735-.402-1.018-.694 5.779-1.118 10.393-3.398 10.602-3.503l.552-.276v-21.062c0-9.129-7.427-16.556-16.556-16.556-4.422 0-8.58 1.722-11.707 4.849l-.238.238c-3.205.788-5.499 3.687-5.499 7.012v25.519l.553.276c.209.104 4.822 2.384 10.602 3.503-.283.292-.624.533-1.018.694l-10.259 4.197c-6.001 2.455-9.878 8.23-9.878 14.712v1h54v-1c0-6.482-3.877-12.257-9.877-14.711zm-14.123 13.711h-6v-8.343c0-.699-.061-1.394-.161-2.082.964.268 2.03.425 3.161.425s2.197-.157 3.161-.425c-.1.688-.161 1.383-.161 2.082zm.691-12.742c-.975.467-2.285.742-3.691.742s-2.716-.275-3.691-.742c-.407-1.29-.981-2.527-1.727-3.662 1.353-.812 2.23-2.216 2.382-3.8.864.45 1.772.837 2.719 1.152l.317.106.316-.105c.947-.316 1.855-.702 2.719-1.152.152 1.583 1.029 2.987 2.382 3.8-.745 1.134-1.319 2.37-1.726 3.661zm4.309-27.258h-4c-1.302 0-2.402.839-2.816 2h-2.369c-.414-1.161-1.514-2-2.816-2h-4c-1.654 0-3 1.346-3 3v-1.117c0-1.293.824-2.437 2.051-2.846l8.95-2.983 8.949 2.983c1.227.409 2.051 1.553 2.051 2.846v1.117c0-1.654-1.346-3-3-3zm1 3v2c0 .551-.449 1-1 1h-4c-.551 0-1-.449-1-1v-2c0-.551.449-1 1-1h4c.551 0 1 .449 1 1zm-12 0v2c0 .551-.449 1-1 1h-4c-.551 0-1-.449-1-1v-2c0-.551.449-1 1-1h4c.551 0 1 .449 1 1zm-5 5h4c1.654 0 3-1.346 3-3v-1h2v1c0 1.654 1.346 3 3 3h4c1.228 0 2.284-.744 2.747-1.803-1.01 5.816-5.061 10.724-10.747 12.745-5.686-2.022-9.737-6.93-10.747-12.745.463 1.059 1.519 1.803 2.747 1.803zm-7-15.901c0-2.479 1.765-4.632 4.196-5.119l.297-.059.658-.658c2.749-2.749 6.405-4.263 10.293-4.263 8.026 0 14.556 6.53 14.556 14.556v19.809c-1.418.645-5.396 2.327-9.985 3.155-.004-.068-.015-.136-.015-.206v-.718c4.921-3.401 8-9.039 8-15.246v-1.468c0-2.155-1.374-4.062-3.418-4.743l-9.582-3.193-9.582 3.194c-2.044.681-3.418 2.588-3.418 4.743v1.468c0 6.206 3.079 11.845 8 15.246v.718c0 .07-.011.137-.015.206-4.589-.829-8.566-2.51-9.985-3.155zm-1.366 36.04 9.084-3.716c1.471 2.114 2.282 4.652 2.282 7.234v8.343h-10v-6h-2v6h-7.965c.373-5.255 3.665-9.842 8.599-11.861zm33.366 11.861v-6h-2v6h-10v-8.343c0-2.582.811-5.12 2.283-7.233l9.084 3.716c4.934 2.018 8.226 6.605 8.599 11.86z"/><path d="m32.444 7c4.22 0 8.028 2.51 9.701 6.395l1.837-.791c-1.989-4.619-6.518-7.604-11.538-7.604-.161 0-.321.003-.48.009l.073 1.999c.135-.005.271-.008.407-.008z"/><path d="m42.988 17.048 1.998-.096c-.035-.73-.134-1.461-.295-2.173l-1.951.441c.135.598.218 1.213.248 1.828z"/><path d="m31 53h2v2h-2z"/><path d="m31 57h2v2h-2z"/></svg>